<svg width="29" height="38" viewBox="0 0 29 38" fill="none" xmlns="http://www.w3.org/2000/svg">
<path d="M29 23.5052C29 31.5104 22.5081 38 14.5 38C6.49187 38 0 31.5104 0 23.5052C0 15.4999 9.20946 5.28866 14.5 0C20.3784 5.87629 29 15.4999 29 23.5052Z" fill="#F4F6F5"/>
<path d="M17.0269 13.8847C16.5941 13.1349 16.851 12.1762 17.6007 11.7433C18.3505 11.3104 19.3092 11.5673 19.7421 12.3171L24.4448 20.4624C24.8776 21.2122 24.6207 22.1709 23.871 22.6037C23.1212 23.0366 22.1625 22.7797 21.7297 22.03L17.0269 13.8847Z" fill="#FF6C52"/>
<circle cx="15.5" cy="8.5" r="1.5" fill="#FF6C52"/>
</svg>
