<svg width="23" height="23" viewBox="0 0 23 23" fill="none" xmlns="http://www.w3.org/2000/svg">
<path d="M5.55957 1.01074C5.87619 1.04324 6.18125 1.14736 6.45215 1.31445C6.71581 1.47713 6.93883 1.69702 7.1084 1.95605L7.11035 1.95508L9.69922 5.79395H9.69824C9.85408 6.0193 9.93848 6.28685 9.93848 6.56152C9.93841 6.85077 9.84601 7.1328 9.67383 7.36523L9.65625 7.3877L9.63867 7.40918L8.32227 8.99023C8.81879 10.0723 9.50569 11.0574 10.3506 11.8984L10.5498 12.0918L10.5635 12.1045L10.5762 12.1172C11.503 13.0574 12.601 13.8097 13.8086 14.335L15.4473 13.0312L15.4746 13.0098L15.5029 12.9902C15.7318 12.8327 16.0034 12.748 16.2812 12.748L16.3848 12.752C16.6158 12.7695 16.8388 12.8461 17.0332 12.9736H17.0342L20.9229 15.4785L20.9209 15.4795C21.1902 15.6467 21.4196 15.871 21.5898 16.1387C21.7655 16.4148 21.8744 16.7282 21.9082 17.0537C21.942 17.3793 21.8994 17.7083 21.7842 18.0146C21.6726 18.3115 21.4947 18.578 21.2656 18.7969L21.2666 18.7979L19.4453 20.5977C19.0669 20.9715 18.6011 21.2461 18.0908 21.3965C17.5807 21.5468 17.041 21.5688 16.5205 21.46V21.459C12.7557 20.6809 9.28575 18.8596 6.50684 16.2031L6.50098 16.1982L6.49512 16.1924C3.77211 13.5038 1.88734 10.0822 1.07031 6.34375V6.34277C0.957215 5.821 0.980707 5.27854 1.13867 4.76855C1.29672 4.25848 1.58427 3.79715 1.97266 3.43066L3.85352 1.61621V1.61816C4.07145 1.40059 4.33338 1.2322 4.62305 1.12695C4.92236 1.01823 5.24278 0.978251 5.55957 1.01074Z" stroke="white" stroke-width="2"/>
</svg>
