<svg width="15" height="14" viewBox="0 0 15 14" fill="none" xmlns="http://www.w3.org/2000/svg">
<path fill-rule="evenodd" clip-rule="evenodd" d="M1.11147 6.68267C1.11147 9.9296 3.4656 12.1419 6.10987 12.5995C6.1818 12.6119 6.25057 12.6384 6.31225 12.6775C6.37393 12.7165 6.42732 12.7673 6.46937 12.827C6.51141 12.8867 6.54129 12.9541 6.5573 13.0253C6.57331 13.0965 6.57513 13.1702 6.56267 13.2421C6.5502 13.3141 6.52369 13.3828 6.48464 13.4445C6.4456 13.5062 6.39479 13.5596 6.33511 13.6016C6.27543 13.6437 6.20806 13.6736 6.13684 13.6896C6.06561 13.7056 5.99193 13.7074 5.92 13.6949C2.81493 13.1573 0 10.5397 0 6.68267C0 5.0432 0.7456 3.75467 1.616 2.77547C2.24 2.0736 2.9536 1.50293 3.52747 1.06667H1.7824C1.64095 1.06667 1.5053 1.01048 1.40528 0.910457C1.30526 0.810438 1.24907 0.674782 1.24907 0.533333C1.24907 0.391885 1.30526 0.256229 1.40528 0.15621C1.5053 0.0561904 1.64095 0 1.7824 0H4.9824C5.12385 0 5.2595 0.0561904 5.35952 0.15621C5.45954 0.256229 5.51573 0.391885 5.51573 0.533333V3.73333C5.51573 3.87478 5.45954 4.01044 5.35952 4.11046C5.2595 4.21048 5.12385 4.26667 4.9824 4.26667C4.84095 4.26667 4.7053 4.21048 4.60528 4.11046C4.50526 4.01044 4.44907 3.87478 4.44907 3.73333V1.76427L4.448 1.7664C3.83787 2.22507 3.09333 2.7872 2.448 3.5136C1.68533 4.3712 1.11147 5.408 1.11147 6.6816V6.68267ZM12.96 7.11573C12.96 3.90293 10.656 1.70453 8.04587 1.21387C7.97312 1.20152 7.90356 1.17482 7.84124 1.1353C7.77892 1.09579 7.7251 1.04426 7.68291 0.983728C7.64072 0.923192 7.611 0.854861 7.5955 0.78272C7.58 0.710579 7.57902 0.636073 7.59262 0.563549C7.60622 0.491025 7.63412 0.421935 7.6747 0.36031C7.71529 0.298685 7.76774 0.245759 7.82899 0.20462C7.89025 0.163481 7.95908 0.134952 8.03148 0.120698C8.10388 0.106445 8.17839 0.106751 8.25067 0.1216C11.3163 0.6976 14.0715 3.30027 14.0715 7.11573C14.0715 8.7552 13.3259 10.0427 12.4555 11.0229C11.8315 11.7248 11.1179 12.2955 10.544 12.7317H12.2891C12.4305 12.7317 12.5662 12.7879 12.6662 12.8879C12.7662 12.988 12.8224 13.1236 12.8224 13.2651C12.8224 13.4065 12.7662 13.5422 12.6662 13.6422C12.5662 13.7422 12.4305 13.7984 12.2891 13.7984H9.08907C8.94762 13.7984 8.81196 13.7422 8.71194 13.6422C8.61192 13.5422 8.55573 13.4065 8.55573 13.2651V10.0651C8.55573 9.92362 8.61192 9.78796 8.71194 9.68794C8.81196 9.58792 8.94762 9.53173 9.08907 9.53173C9.23052 9.53173 9.36617 9.58792 9.46619 9.68794C9.56621 9.78796 9.6224 9.92362 9.6224 10.0651V12.0331H9.62453C10.2336 11.5723 10.9792 11.0112 11.6235 10.2837C12.3861 9.4272 12.96 8.3904 12.96 7.11573Z" fill="white"/>
</svg>
