<svg width="40" height="25" viewBox="0 0 40 25" fill="none" xmlns="http://www.w3.org/2000/svg">
<path d="M25.247 2.63687H14.4995V22.0298H25.247V2.63687Z" fill="#FF5F00"/>
<path d="M15.182 12.3333C15.1803 10.4656 15.6018 8.62205 16.4146 6.94212C17.2274 5.26219 18.4102 3.78996 19.8734 2.63687C18.0614 1.20676 15.8853 0.317404 13.5937 0.070439C11.3021 -0.176526 8.9876 0.228859 6.91464 1.24028C4.84168 2.2517 3.09394 3.82834 1.87118 5.78998C0.648427 7.75163 0 10.0191 0 12.3333C0 14.6475 0.648427 16.915 1.87118 18.8766C3.09394 20.8383 4.84168 22.4149 6.91464 23.4263C8.9876 24.4378 11.3021 24.8432 13.5937 24.5962C15.8853 24.3492 18.0614 23.4599 19.8734 22.0298C18.4102 20.8767 17.2274 19.4044 16.4146 17.7245C15.6019 16.0446 15.1804 14.201 15.182 12.3333Z" fill="#EB001B"/>
<path d="M39.7463 12.3333C39.7464 14.6475 39.098 16.915 37.8754 18.8766C36.6527 20.8382 34.905 22.4149 32.8321 23.4263C30.7591 24.4377 28.4446 24.8431 26.1531 24.5962C23.8616 24.3492 21.6855 23.4599 19.8735 22.0298C21.3355 20.8755 22.5173 19.403 23.33 17.7234C24.1426 16.0437 24.5649 14.2007 24.5649 12.3333C24.5649 10.4659 24.1426 8.62292 23.33 6.94326C22.5173 5.26359 21.3355 3.79112 19.8735 2.63686C21.6855 1.20676 23.8616 0.317398 26.1531 0.0704357C28.4446 -0.176526 30.7591 0.228877 32.8321 1.24031C34.905 2.25174 36.6527 3.82838 37.8754 5.79002C39.098 7.75167 39.7464 10.0192 39.7463 12.3333Z" fill="#F79E1B"/>
<path d="M38.5743 19.9757V19.5787H38.7337V19.4978H38.3276V19.5787H38.4871V19.9757H38.5743ZM39.3626 19.9757V19.497H39.2381L39.095 19.8263L38.9518 19.497H38.8272V19.9757H38.9151V19.6146L39.0494 19.926H39.1405L39.2748 19.6139V19.9757H39.3626Z" fill="#F79E1B"/>
</svg>
