<svg width="20" height="20" viewBox="0 0 20 20" fill="none" xmlns="http://www.w3.org/2000/svg">
<path d="M18.508 10.255C16.8718 8.3825 13.538 5.25 9.61801 5.25C5.69801 5.25 2.36426 8.3825 0.72801 10.255C0.257834 10.8134 0 11.52 0 12.25C0 12.98 0.257834 13.6866 0.72801 14.245C2.36426 16.1175 5.69801 19.25 9.61801 19.25C13.538 19.25 16.8718 16.1175 18.508 14.245C18.9782 13.6866 19.236 12.98 19.236 12.25C19.236 11.52 18.9782 10.8134 18.508 10.255ZM17.1868 13.125C15.743 14.77 12.8118 17.5 9.61801 17.5C6.42426 17.5 3.49301 14.735 2.04926 13.125C1.85441 12.8884 1.74786 12.5915 1.74786 12.285C1.74786 11.9785 1.85441 11.6816 2.04926 11.445C3.49301 9.765 6.38926 7 9.61801 7C12.8468 7 15.743 9.765 17.1868 11.375C17.4002 11.6165 17.518 11.9277 17.518 12.25C17.518 12.5723 17.4002 12.8835 17.1868 13.125ZM9.61801 8.75C8.92578 8.75 8.24909 8.95527 7.67352 9.33986C7.09794 9.72444 6.64934 10.2711 6.38443 10.9106C6.11952 11.5501 6.05021 12.2539 6.18526 12.9328C6.32031 13.6118 6.65365 14.2354 7.14314 14.7249C7.63262 15.2144 8.25626 15.5477 8.93519 15.6827C9.61413 15.8178 10.3179 15.7485 10.9574 15.4836C11.5969 15.2187 12.1436 14.7701 12.5282 14.1945C12.9127 13.6189 13.118 12.9422 13.118 12.25C13.118 11.3217 12.7493 10.4315 12.0929 9.77513C11.4365 9.11875 10.5463 8.75 9.61801 8.75ZM9.61801 14C9.27189 14 8.93355 13.8974 8.64576 13.7051C8.35798 13.5128 8.13367 13.2395 8.00122 12.9197C7.86877 12.5999 7.83411 12.2481 7.90164 11.9086C7.96916 11.5691 8.13583 11.2573 8.38057 11.0126C8.62532 10.7678 8.93714 10.6012 9.2766 10.5336C9.61607 10.4661 9.96794 10.5008 10.2877 10.6332C10.6075 10.7657 10.8808 10.99 11.0731 11.2778C11.2654 11.5655 11.368 11.9039 11.368 12.25C11.368 12.7141 11.1836 13.1592 10.8554 13.4874C10.5273 13.8156 10.0821 14 9.61801 14ZM8.74301 2.625V0.875C8.74301 0.642936 8.8352 0.420376 8.99929 0.256282C9.16339 0.0921872 9.38595 0 9.61801 0C9.85007 0 10.0726 0.0921872 10.2367 0.256282C10.4008 0.420376 10.493 0.642936 10.493 0.875V2.625C10.493 2.85706 10.4008 3.07962 10.2367 3.24372C10.0726 3.40781 9.85007 3.5 9.61801 3.5C9.38595 3.5 9.16339 3.40781 8.99929 3.24372C8.8352 3.07962 8.74301 2.85706 8.74301 2.625ZM4.45551 2.07375C4.36843 1.86015 4.36922 1.6208 4.45771 1.40778C4.54619 1.19476 4.71522 1.02529 4.92801 0.93625C5.03654 0.88479 5.1545 0.856226 5.27455 0.852335C5.3946 0.848445 5.51416 0.869312 5.62579 0.913637C5.73743 0.957962 5.83874 1.0248 5.92342 1.10998C6.0081 1.19516 6.07434 1.29686 6.11801 1.40875L6.78301 3.0275C6.83747 3.16006 6.85854 3.30397 6.84436 3.44658C6.83018 3.58919 6.78119 3.72613 6.7017 3.84537C6.6222 3.96462 6.51463 4.06251 6.38845 4.13045C6.26226 4.19838 6.12132 4.23429 5.97801 4.235C5.80526 4.23414 5.63664 4.18216 5.49338 4.08562C5.35013 3.98908 5.23865 3.85229 5.17301 3.6925L4.45551 2.07375ZM0.95551 4.82125C0.812162 4.65386 0.737257 4.43855 0.745763 4.21833C0.754269 3.99811 0.84556 3.78922 1.00139 3.63338C1.15723 3.47755 1.36612 3.38626 1.58634 3.37775C1.80656 3.36925 2.02187 3.44415 2.18926 3.5875L3.43176 4.82125C3.51377 4.90259 3.57887 4.99937 3.62329 5.106C3.66771 5.21262 3.69058 5.32699 3.69058 5.4425C3.69058 5.55801 3.66771 5.67238 3.62329 5.77901C3.57887 5.88563 3.51377 5.98241 3.43176 6.06375C3.35 6.14485 3.25304 6.20901 3.14643 6.25255C3.03982 6.29609 2.92567 6.31817 2.81051 6.3175C2.69535 6.31817 2.5812 6.29609 2.47459 6.25255C2.36798 6.20901 2.27102 6.14485 2.18926 6.06375L0.95551 4.82125ZM12.4968 3.07125L13.1618 1.4525C13.2058 1.34607 13.2705 1.24938 13.352 1.16799C13.4335 1.0866 13.5303 1.02211 13.6368 0.978207C13.7433 0.934308 13.8574 0.911868 13.9726 0.912176C14.0878 0.912484 14.2017 0.935532 14.308 0.98C14.5208 1.06904 14.6898 1.23851 14.7783 1.45153C14.8668 1.66455 14.8676 1.9039 14.7805 2.1175L14.1068 3.73625C14.0411 3.89604 13.9296 4.03283 13.7864 4.12937C13.6431 4.22591 13.4745 4.27789 13.3018 4.27875C13.1584 4.27804 13.0175 4.24213 12.8913 4.1742C12.7651 4.10626 12.6576 4.00837 12.5781 3.88912C12.4986 3.76988 12.4496 3.63294 12.4354 3.49033C12.4212 3.34772 12.4423 3.20381 12.4968 3.07125ZM15.8043 6.1075C15.7222 6.02616 15.6572 5.92938 15.6127 5.82275C15.5683 5.71613 15.5454 5.60176 15.5454 5.48625C15.5454 5.37074 15.5683 5.25637 15.6127 5.14975C15.6572 5.04312 15.7222 4.94634 15.8043 4.865L17.0468 3.5875C17.1252 3.4959 17.2217 3.42151 17.3303 3.36899C17.4388 3.31647 17.5571 3.28696 17.6776 3.2823C17.7981 3.27765 17.9183 3.29795 18.0305 3.34194C18.1428 3.38593 18.2448 3.45266 18.3301 3.53793C18.4154 3.6232 18.4821 3.72518 18.5261 3.83747C18.5701 3.94975 18.5904 4.06992 18.5857 4.19042C18.5811 4.31093 18.5515 4.42917 18.499 4.53772C18.4465 4.64628 18.3721 4.74281 18.2805 4.82125L17.0468 6.06375C16.965 6.14485 16.868 6.20901 16.7614 6.25255C16.6548 6.29609 16.5407 6.31817 16.4255 6.3175C16.3104 6.31817 16.1962 6.29609 16.0896 6.25255C15.983 6.20901 15.886 6.14485 15.8043 6.06375V6.1075Z" fill="#6295E2"/>
</svg>
