<svg xmlns="http://www.w3.org/2000/svg" width="51" height="75" viewBox="0 0 51 75">
<g>
<path d="M 7.14 68.86 C6.27,66.49 11.77,43.39 14.66,37.30 C17.74,30.80 25.08,28.34 32.33,31.36 C34.12,32.11 36.33,33.86 37.24,35.25 C39.77,39.10 46.39,65.31 45.62,68.39 L 44.96 71.00 L 26.45 71.00 C8.45,71.00 7.91,70.94 7.14,68.86 ZM 41.00 65.75 C40.99,65.61 39.44,59.65 37.53,52.50 C33.85,38.64 31.55,35.00 26.50,35.00 C20.67,35.00 18.43,39.56 12.63,63.25 L 11.96 66.00 L 26.48 66.00 C34.47,66.00 41.00,65.89 41.00,65.75 ZM 22.39 24.07 C17.13,21.82 14.53,14.74 17.12,9.68 C19.72,4.59 27.00,2.32 32.06,5.03 C34.61,6.40 37.00,11.18 37.00,14.93 C37.00,21.30 28.44,26.65 22.39,24.07 ZM 30.00 18.00 C35.19,12.81 28.28,5.73 22.83,10.65 C21.82,11.57 21.00,13.14 21.00,14.15 C21.00,16.38 24.41,20.00 26.50,20.00 C27.33,20.00 28.90,19.10 30.00,18.00 Z" fill="rgba(0,0,0,1)"/>
</g>
</svg>