<svg width="25" height="25" viewBox="0 0 25 25" fill="none" xmlns="http://www.w3.org/2000/svg">
<path d="M23.5 21.3V12.8838C23.5 12.2056 23.362 11.5345 23.0945 10.9113C22.827 10.2881 22.4354 9.72585 21.9437 9.25875L13.9725 1.6875C13.5079 1.24611 12.8915 1 12.2506 1C11.6098 1 10.9934 1.24611 10.5288 1.6875L2.55625 9.25875C2.06457 9.72585 1.67304 10.2881 1.40551 10.9113C1.13797 11.5345 0.999999 12.2056 1 12.8838V21.3C1 21.963 1.26339 22.5989 1.73223 23.0678C2.20107 23.5366 2.83696 23.8 3.5 23.8H21C21.663 23.8 22.2989 23.5366 22.7678 23.0678C23.2366 22.5989 23.5 21.963 23.5 21.3Z" stroke="#CDCFCE" stroke-width="2" stroke-linecap="round" stroke-linejoin="round"/>
<path d="M8.5 16.3C8.5 15.6369 8.76339 15.0011 9.23223 14.5322C9.70107 14.0634 10.337 13.8 11 13.8H13.5C14.163 13.8 14.7989 14.0634 15.2678 14.5322C15.7366 15.0011 16 15.6369 16 16.3V23.8H8.5V16.3Z" stroke="#CDCFCE" stroke-width="2" stroke-linecap="round" stroke-linejoin="round"/>
</svg>
