<svg width="24" height="24" viewBox="0 0 24 24" fill="none" xmlns="http://www.w3.org/2000/svg">
<g clip-path="url(#clip0_1_813)">
<path d="M23 20.5877V12.4668C23 11.8124 22.8651 11.1648 22.6035 10.5635C22.3419 9.9622 21.9591 9.41968 21.4783 8.96897L13.6842 1.66338C13.2299 1.23747 12.6272 1 12.0006 1C11.374 1 10.7713 1.23747 10.317 1.66338L2.52167 8.96897C2.04091 9.41968 1.65809 9.9622 1.39649 10.5635C1.1349 11.1648 0.999999 11.8124 1 12.4668V20.5877C1 21.2275 1.25754 21.8411 1.71596 22.2935C2.17438 22.7458 2.79614 23 3.44444 23H20.5556C21.2039 23 21.8256 22.7458 22.284 22.2935C22.7425 21.8411 23 21.2275 23 20.5877Z" stroke="#1C1F1E" stroke-width="1.8" stroke-linecap="round" stroke-linejoin="round"/>
<path d="M13.3604 9.09961C14.0633 9.09981 14.6336 9.67007 14.6338 10.373V11.3662H15.627C16.3299 11.3664 16.9002 11.9367 16.9004 12.6396V15.3604C16.9002 16.0633 16.3299 16.6336 15.627 16.6338H14.6338V17.627C14.6336 18.3299 14.0633 18.9002 13.3604 18.9004H10.6396C9.93667 18.9002 9.3664 18.3299 9.36621 17.627V16.6338H8.37305C7.67007 16.6336 7.09981 16.0633 7.09961 15.3604V12.6396C7.09981 11.9367 7.67007 11.3664 8.37305 11.3662H9.36621V10.373C9.3664 9.67007 9.93667 9.09981 10.6396 9.09961H13.3604Z" stroke="#1C1F1E" stroke-width="1.8"/>
</g>
<defs>
<clipPath id="clip0_1_813">
<rect width="24" height="24" fill="white"/>
</clipPath>
</defs>
</svg>
