<svg width="28" height="28" viewBox="0 0 28 28" fill="none" xmlns="http://www.w3.org/2000/svg">
<path d="M7.15918 2.10016C7.50371 2.13551 7.83611 2.24838 8.13086 2.43024C8.41812 2.60751 8.66117 2.84706 8.8457 3.12946H8.84668L11.8672 7.60797H11.8662C12.0295 7.84337 12.1181 8.12253 12.1182 8.40973C12.1182 8.7116 12.0215 9.00605 11.8418 9.2486L11.8252 9.27106L11.8066 9.29254L10.2051 11.2164C10.8404 12.6344 11.7497 13.9151 12.8838 14.983L12.8975 14.9957L12.9102 15.0093C14.0301 16.1454 15.3614 17.0486 16.8262 17.6714L18.8154 16.0894L18.8428 16.067L18.8711 16.0474C19.1103 15.8827 19.3941 15.7945 19.6846 15.7945C19.9646 15.7945 20.238 15.8773 20.4717 16.0308H20.4727L25.0098 18.9537H25.0088C25.3026 19.1357 25.5517 19.3815 25.7373 19.6734C25.9284 19.9738 26.0472 20.3144 26.084 20.6685C26.1207 21.0226 26.0745 21.3802 25.9492 21.7134C25.8276 22.0369 25.6336 22.3277 25.3838 22.566L25.3848 22.567L23.2588 24.6675L23.2578 24.6666C22.836 25.0833 22.3178 25.3895 21.749 25.5572C21.1802 25.7248 20.5785 25.7498 19.998 25.6285V25.6275C15.6363 24.7261 11.616 22.6163 8.39648 19.5386L8.39062 19.5328L8.38477 19.5279C5.23088 16.4138 3.04885 12.4507 2.10254 8.12067L2.10156 8.11969C1.9757 7.53901 2.00194 6.9353 2.17773 6.36774C2.3536 5.80016 2.67333 5.28729 3.10547 4.87946L5.30176 2.76129V2.76227C5.53917 2.52478 5.82477 2.34087 6.14062 2.22614C6.4662 2.10788 6.8146 2.06482 7.15918 2.10016Z" stroke="white" stroke-width="2"/>
</svg>
