<svg width="101" height="74" viewBox="0 0 101 74" fill="none" xmlns="http://www.w3.org/2000/svg">
<path d="M78.0745 31.3278H72.6237C72.303 31.3278 71.9824 31.6484 71.8221 31.969L69.5776 46.077C69.5776 46.3976 69.738 46.5579 70.0586 46.5579H72.9443C73.2649 46.5579 73.4253 46.3976 73.4253 46.077L74.0665 42.069C74.0665 41.7484 74.3872 41.4278 74.8681 41.4278H76.6316C80.3189 41.4278 82.403 39.6643 82.884 36.1373C83.2046 34.6944 82.884 33.4119 82.2427 32.6103C81.2808 31.8087 79.838 31.3278 78.0745 31.3278ZM78.7157 36.6182C78.3951 38.542 76.9522 38.542 75.5094 38.542H74.5475L75.1887 34.8547C75.1887 34.6944 75.3491 34.5341 75.6697 34.5341H75.9903C76.9522 34.5341 77.9141 34.5341 78.3951 35.1754C78.7157 35.3357 78.7157 35.8166 78.7157 36.6182Z" fill="#139AD6"/>
<path d="M38.7966 31.3278H33.3458C33.0252 31.3278 32.7046 31.6484 32.5442 31.969L30.2998 46.077C30.2998 46.3976 30.4601 46.5579 30.7808 46.5579H33.3458C33.6665 46.5579 33.9871 46.2373 34.1474 45.9166L34.7887 42.069C34.7887 41.7484 35.1093 41.4278 35.5903 41.4278H37.3538C41.0411 41.4278 43.1252 39.6643 43.6062 36.1373C43.9268 34.6944 43.6062 33.4119 42.9649 32.6103C42.003 31.8087 40.7204 31.3278 38.7966 31.3278ZM39.4379 36.6182C39.1173 38.542 37.6744 38.542 36.2316 38.542H35.43L36.0712 34.8547C36.0712 34.6944 36.2316 34.5341 36.5522 34.5341H36.8728C37.8347 34.5341 38.7966 34.5341 39.2776 35.1754C39.4379 35.3357 39.5982 35.8166 39.4379 36.6182Z" fill="#263B80"/>
<path d="M55.3091 36.4579H52.7441C52.5837 36.4579 52.2631 36.6182 52.2631 36.7786L52.1028 37.5801L51.9425 37.2595C51.3012 36.4579 50.179 36.1373 48.8964 36.1373C46.0107 36.1373 43.4456 38.3817 42.9647 41.4278C42.6441 43.0309 43.125 44.4738 43.9266 45.4357C44.7282 46.3976 45.8504 46.7182 47.2933 46.7182C49.698 46.7182 50.9806 45.2754 50.9806 45.2754L50.8202 46.077C50.8202 46.3976 50.9806 46.5579 51.3012 46.5579H53.706C54.0266 46.5579 54.3472 46.2373 54.5075 45.9166L55.9504 36.9389C55.7901 36.7786 55.4695 36.4579 55.3091 36.4579ZM51.6218 41.5881C51.3012 43.0309 50.179 44.1532 48.5758 44.1532C47.7742 44.1532 47.1329 43.8325 46.8123 43.5119C46.4917 43.0309 46.3314 42.3897 46.3314 41.5881C46.4917 40.1452 47.7742 39.023 49.2171 39.023C50.0187 39.023 50.4996 39.3436 50.9806 39.6643C51.4615 40.1452 51.6218 40.9468 51.6218 41.5881Z" fill="#263B80"/>
<path d="M94.4268 36.458H91.8617C91.7014 36.458 91.3808 36.6183 91.3808 36.7786L91.2205 37.5802L91.0601 37.2596C90.4189 36.458 89.2967 36.1373 88.0141 36.1373C85.1284 36.1373 82.5633 38.3818 82.0824 41.4278C81.7617 43.031 82.2427 44.4738 83.0443 45.4357C83.8459 46.3976 84.9681 46.7183 86.4109 46.7183C88.8157 46.7183 90.0982 45.2754 90.0982 45.2754L89.9379 46.077C89.9379 46.3976 90.0982 46.558 90.4189 46.558H92.8236C93.1443 46.558 93.4649 46.2373 93.6252 45.9167L95.0681 36.9389C94.9078 36.7786 94.7474 36.458 94.4268 36.458ZM90.7395 41.5881C90.4189 43.031 89.2967 44.1532 87.6935 44.1532C86.8919 44.1532 86.2506 43.8326 85.93 43.5119C85.6093 43.031 85.449 42.3897 85.449 41.5881C85.6093 40.1453 86.8919 39.023 88.3347 39.023C89.1363 39.023 89.6173 39.3437 90.0982 39.6643C90.7395 40.1453 90.8998 40.9469 90.7395 41.5881Z" fill="#139AD6"/>
<path d="M69.257 36.4579H66.5316C66.211 36.4579 66.0507 36.6183 65.8904 36.7786L62.3634 42.2294L60.7602 37.0992C60.5999 36.7786 60.4396 36.6183 59.9586 36.6183H57.3935C57.0729 36.6183 56.9126 36.9389 56.9126 37.2595L59.7983 45.7564L57.0729 49.604C56.9126 49.9246 57.0729 50.4056 57.3935 50.4056H59.9586C60.2793 50.4056 60.4396 50.2452 60.5999 50.0849L69.4174 37.4199C69.8983 36.9389 69.5777 36.4579 69.257 36.4579Z" fill="#263B80"/>
<path d="M97.473 31.8087L95.2285 46.2373C95.2285 46.5579 95.3888 46.7182 95.7095 46.7182H97.9539C98.2745 46.7182 98.5952 46.3976 98.7555 46.077L101 31.969C101 31.6484 100.84 31.4881 100.519 31.4881H97.9539C97.7936 31.3277 97.6333 31.4881 97.473 31.8087Z" fill="#139AD6"/>
<path d="M18.4365 26.5183C17.3143 25.2358 15.2302 24.5945 12.3444 24.5945H4.32857C3.84762 24.5945 3.36667 25.0754 3.20635 25.5564L0 46.558C0 47.0389 0.320635 47.3596 0.64127 47.3596H5.61111L6.89365 39.504V39.8246C7.05397 39.3437 7.53492 38.8627 8.01587 38.8627H10.4206C15.0698 38.8627 18.5968 36.9389 19.719 31.6485C19.719 31.4881 19.719 31.3278 19.719 31.1675C19.5587 31.1675 19.5587 31.1675 19.719 31.1675C19.8794 29.0834 19.5587 27.8008 18.4365 26.5183Z" fill="#263B80"/>
<path d="M19.5589 31.1675C19.5589 31.3278 19.5589 31.4881 19.5589 31.6484C18.4367 37.0992 14.9097 38.8627 10.2605 38.8627H7.85577C7.37482 38.8627 6.89386 39.3437 6.73355 39.8246L5.13037 49.604C5.13037 49.9246 5.29069 50.2453 5.77164 50.2453H9.93989C10.4208 50.2453 10.9018 49.9246 10.9018 49.4437V49.2834L11.7034 44.3135V43.9929C11.7034 43.5119 12.1843 43.1913 12.6653 43.1913H13.3066C17.3145 43.1913 20.5208 41.5881 21.3224 36.7786C21.6431 34.8548 21.4828 33.0913 20.5208 31.9691C20.3605 31.6484 20.0399 31.3278 19.5589 31.1675Z" fill="#139AD6"/>
<path d="M18.4364 30.6865C18.2761 30.6865 18.1158 30.5262 17.9555 30.5262C17.7951 30.5262 17.6348 30.5262 17.4745 30.3659C16.8332 30.2056 16.192 30.2056 15.3904 30.2056H9.138C8.97768 30.2056 8.81736 30.2056 8.65705 30.3659C8.33641 30.5262 8.17609 30.8468 8.17609 31.1675L6.89355 39.504V39.8246C7.05387 39.3437 7.53482 38.8627 8.01578 38.8627H10.4205C15.0697 38.8627 18.5967 36.9389 19.719 31.6484C19.719 31.4881 19.719 31.3278 19.8793 31.1675C19.5586 31.0072 19.3983 30.8468 19.0777 30.8468C18.5967 30.6865 18.5967 30.6865 18.4364 30.6865Z" fill="#232C65"/>
</svg>
