<svg width="16" height="27" viewBox="0 0 16 27" fill="none" xmlns="http://www.w3.org/2000/svg">
<g clip-path="url(#clip0_1_326)">
<rect width="16" height="27" fill="#F4F6F5"/>
<path d="M8.07104 1C9.84589 1 11.2915 2.44462 11.2917 4.21777C11.2917 5.9908 9.84606 7.43652 8.07104 7.43652C6.29593 7.43638 4.85132 5.99075 4.85132 4.21777C4.85153 2.44471 6.29633 1.00015 8.07104 1Z" stroke="#1C1F1E" stroke-width="2"/>
<path d="M8.03345 11.5159C10.0222 11.5159 11.7765 12.8718 12.2883 14.8245L14.9749 25.0716C15.0348 25.3008 14.9875 25.5326 14.8459 25.7181C14.7044 25.9034 14.4986 26.0042 14.2727 26.0042H1.79419C1.56845 26.0041 1.36336 25.9033 1.22192 25.7181C1.0802 25.5325 1.03292 25.3007 1.09302 25.0716L3.77954 14.8245C4.29135 12.872 6.04479 11.5161 8.03345 11.5159Z" stroke="#1C1F1E" stroke-width="2"/>
</g>
<defs>
<clipPath id="clip0_1_326">
<rect width="16" height="27" fill="white"/>
</clipPath>
</defs>
</svg>
