<svg width="16" height="28" viewBox="0 0 16 28" fill="none" xmlns="http://www.w3.org/2000/svg">
<g clip-path="url(#clip0_1_334)">
<path d="M8.0033 1C9.77773 1 11.2239 2.44533 11.224 4.21973C11.224 5.99425 9.77782 7.44043 8.0033 7.44043C6.22867 7.44028 4.78357 5.9942 4.78357 4.21973C4.78372 2.44542 6.22899 1.00015 8.0033 1Z" stroke="white" stroke-width="2"/>
<path d="M1.72668 11.9054H14.2052C14.3901 11.9054 14.5694 11.9793 14.7101 12.132L14.7677 12.2023C14.9168 12.405 14.9701 12.6661 14.9044 12.9269L12.2179 23.5538C11.6974 25.6129 9.92922 27.004 7.96594 27.004C6.00276 27.0039 4.23443 25.6128 3.71399 23.5538L1.02747 12.9269C0.970045 12.699 1.00425 12.4706 1.1134 12.2814L1.16516 12.2023C1.31206 12.0026 1.51565 11.9055 1.72668 11.9054Z" stroke="white" stroke-width="2"/>
</g>
<defs>
<clipPath id="clip0_1_334">
<rect width="16" height="28" fill="white"/>
</clipPath>
</defs>
</svg>
