<svg width="25" height="25" viewBox="0 0 25 25" fill="none" xmlns="http://www.w3.org/2000/svg">
<path d="M12.2885 0.0999756C10.1719 0.0998149 8.0917 0.650906 6.25277 1.69899C4.41384 2.74707 2.87957 4.25601 1.80103 6.07725C0.722479 7.89848 0.13684 9.9692 0.101771 12.0855C0.0667016 14.2019 0.58341 16.2909 1.60102 18.1469L0.604929 21.6625C0.512006 21.9828 0.506783 22.3223 0.589805 22.6453C0.672826 22.9684 0.841048 23.2632 1.07691 23.4991C1.31277 23.735 1.60762 23.9032 1.93068 23.9862C2.25375 24.0692 2.59317 24.064 2.91352 23.9711L6.42915 22.975C8.05839 23.8679 9.87022 24.3766 11.7262 24.4621C13.5821 24.5475 15.433 24.2076 17.1374 23.4681C18.8418 22.7287 20.3547 21.6093 21.5602 20.1957C22.7658 18.782 23.6322 17.1114 24.0932 15.3116C24.5542 13.5118 24.5976 11.6305 24.2201 9.81131C23.8427 7.99215 23.0543 6.28337 21.9152 4.81559C20.7762 3.3478 19.3166 2.15986 17.6482 1.34256C15.9797 0.525255 14.1464 0.100233 12.2885 0.0999756ZM12.2885 22.6C10.4373 22.5983 8.62042 22.1005 7.0268 21.1586C6.87975 21.0766 6.71468 21.0323 6.54634 21.0297C6.45921 21.0298 6.3725 21.0416 6.28852 21.0648L2.3979 22.1781L3.51118 18.2875C3.54543 18.1644 3.55477 18.0357 3.53868 17.9089C3.52258 17.7821 3.48136 17.6598 3.41743 17.5492C2.25652 15.5924 1.77535 13.3065 2.04888 11.0477C2.3224 8.78897 3.33526 6.68406 4.92969 5.06088C6.52412 3.4377 8.6106 2.38739 10.8641 2.07355C13.1177 1.75971 15.4117 2.19995 17.389 3.32572C19.3663 4.45148 20.9157 6.19954 21.796 8.29764C22.6763 10.3957 22.838 12.7261 22.2559 14.9256C21.6739 17.1252 20.3807 19.0705 18.5779 20.4586C16.7751 21.8467 14.5638 22.5995 12.2885 22.6ZM13.6948 12.2875C13.6948 12.5656 13.6123 12.8375 13.4578 13.0687C13.3033 13.3 13.0836 13.4802 12.8267 13.5867C12.5697 13.6931 12.287 13.721 12.0142 13.6667C11.7414 13.6124 11.4908 13.4785 11.2942 13.2818C11.0975 13.0852 10.9636 12.8346 10.9093 12.5618C10.855 12.289 10.8829 12.0063 10.9893 11.7493C11.0958 11.4924 11.276 11.2727 11.5073 11.1182C11.7385 10.9637 12.0104 10.8812 12.2885 10.8812C12.6615 10.8812 13.0192 11.0294 13.2829 11.2931C13.5466 11.5568 13.6948 11.9145 13.6948 12.2875ZM8.06977 12.2875C8.06977 12.5656 7.9873 12.8375 7.83278 13.0687C7.67826 13.3 7.45863 13.4802 7.20167 13.5867C6.94471 13.6931 6.66196 13.721 6.38918 13.6667C6.11639 13.6124 5.86582 13.4785 5.66915 13.2818C5.47249 13.0852 5.33855 12.8346 5.28429 12.5618C5.23003 12.289 5.25788 12.0063 5.36432 11.7493C5.47075 11.4924 5.651 11.2727 5.88225 11.1182C6.11351 10.9637 6.38539 10.8812 6.66352 10.8812C7.03648 10.8812 7.39417 11.0294 7.65789 11.2931C7.92161 11.5568 8.06977 11.9145 8.06977 12.2875ZM19.3198 12.2875C19.3198 12.5656 19.2373 12.8375 19.0828 13.0687C18.9283 13.3 18.7086 13.4802 18.4517 13.5867C18.1947 13.6931 17.912 13.721 17.6392 13.6667C17.3664 13.6124 17.1158 13.4785 16.9192 13.2818C16.7225 13.0852 16.5886 12.8346 16.5343 12.5618C16.48 12.289 16.5079 12.0063 16.6143 11.7493C16.7208 11.4924 16.901 11.2727 17.1323 11.1182C17.3635 10.9637 17.6354 10.8812 17.9135 10.8812C18.2865 10.8812 18.6442 11.0294 18.9079 11.2931C19.1716 11.5568 19.3198 11.9145 19.3198 12.2875Z" fill="#CDCFCE" stroke="#CDCFCE" stroke-width="0.2"/>
</svg>
