<svg width="22" height="22" viewBox="0 0 22 22" fill="none" xmlns="http://www.w3.org/2000/svg">
<path d="M21.9995 5.92144C21.9758 4.34268 21.3402 2.85798 20.2098 1.74084C19.0795 0.623863 17.5874 0.00562891 16.0054 0C14.1855 0 12.7995 0.950469 11.5902 1.95074C11.5889 1.95074 11.5875 1.95074 11.5861 1.95074C11.0276 1.95074 10.437 1.61408 9.75581 1.22581C8.79773 0.679637 7.60548 0 5.99466 0C2.73845 0 0.0495082 2.65637 0.000523855 5.92148C-0.0205738 7.32484 0.597532 10.4213 1.50357 13.4513C2.14909 15.6102 3.47287 19.4763 5.08549 21.1133C5.66024 21.6968 6.26159 21.9927 6.8726 21.9927C7.32339 21.9927 7.73129 21.8053 8.05222 21.4509C8.27063 21.2096 8.45054 20.8888 8.60214 20.4701C8.83842 19.8176 8.98611 18.9879 9.14247 18.1094C9.54367 15.8553 9.9355 14.1301 11.0021 14.1237C12.0688 14.1301 12.4606 15.8553 12.8618 18.1094C13.0182 18.9878 13.1658 19.8176 13.4021 20.4701C13.5537 20.8888 13.7336 21.2096 13.952 21.4509C14.2693 21.8012 14.6714 21.9883 15.1161 21.9926C15.1207 21.9926 15.1252 21.9926 15.1298 21.9926C15.1304 21.9926 15.131 21.9926 15.1317 21.9926C15.1346 21.9926 15.1376 21.9926 15.1404 21.9925C15.747 21.9884 16.3439 21.6926 16.9147 21.1132C18.5272 19.4763 19.8509 15.6101 20.4964 13.4513C21.4025 10.4212 22.0206 7.3248 21.9995 5.92144ZM18.8503 12.9589C17.8295 16.3725 16.6779 18.9051 15.6906 19.9073C15.4771 20.1241 15.3069 20.229 15.1975 20.2623C15.1436 20.1867 15.0387 19.999 14.9182 19.5719C14.7804 19.0838 14.6701 18.4641 14.5533 17.8081C14.3559 16.6989 14.132 15.4416 13.6963 14.4474C12.9643 12.7778 11.8439 12.4132 11.0227 12.4056C11.0179 12.4055 11.013 12.4054 11.008 12.4054H10.9961C10.9912 12.4054 10.9863 12.4055 10.9814 12.4056C10.1603 12.4132 9.03986 12.7778 8.30793 14.4474C7.8721 15.4416 7.64832 16.6988 7.45088 17.8081C7.33413 18.4642 7.22383 19.0838 7.08607 19.5719C6.96499 20.001 6.85967 20.1884 6.806 20.2633C6.69677 20.2313 6.5252 20.1264 6.3095 19.9074C5.32216 18.9052 4.17051 16.3726 3.14979 12.959C2.19949 9.78102 1.70312 6.97447 1.71854 5.94726C1.75356 3.6153 3.67186 1.71815 5.99475 1.71815C7.15022 1.71815 8.0423 2.22668 8.90494 2.71833C9.25853 2.9199 9.61719 3.12439 9.99183 3.29175C9.14522 3.95729 8.32572 4.43751 7.36833 4.43751V6.1557C9.31666 6.1557 10.7176 4.95494 12.0724 3.79375C13.3178 2.72632 14.4941 1.71806 16.0023 1.71806C18.327 1.72636 20.2467 3.62351 20.2816 5.94718C20.2969 6.97439 19.8005 9.78093 18.8503 12.9589Z" fill="#F7C25D"/>
</svg>
