<svg width="20" height="14" viewBox="0 0 20 14" fill="none" xmlns="http://www.w3.org/2000/svg">
<path d="M19.2949 6.17969C18.7268 5.03369 17.9746 3.98858 17.0684 3.08594C15.0449 1.07031 12.498 0 9.68555 0C6.87305 0 4.32617 1.07031 2.30274 3.08594C1.39647 3.98858 0.644308 5.03369 0.076174 6.17969C0.0258843 6.30105 0 6.43113 0 6.5625C0 6.69387 0.0258843 6.82395 0.076174 6.94531C0.644308 8.09131 1.39647 9.13642 2.30274 10.0391C4.32617 12.0547 6.87305 13.125 9.68555 13.125C12.498 13.125 15.0449 12.0547 17.0684 10.0391C17.9746 9.13642 18.7268 8.09131 19.2949 6.94531C19.3452 6.82395 19.3711 6.69387 19.3711 6.5625C19.3711 6.43113 19.3452 6.30105 19.2949 6.17969ZM15.6934 8.75781C14.0215 10.4141 11.998 11.25 9.68555 11.25C7.37305 11.25 5.34961 10.4141 3.67774 8.75781C3.01867 8.10561 2.45101 7.36712 1.99024 6.5625C2.44897 5.75652 3.01684 5.01777 3.67774 4.36719C5.34961 2.71094 7.37305 1.875 9.68555 1.875C11.998 1.875 14.0215 2.71094 15.6934 4.36719C16.3524 5.01939 16.9201 5.75788 17.3809 6.5625C16.9201 7.36712 16.3524 8.10561 15.6934 8.75781ZM9.68555 3.125C9.00568 3.125 8.34107 3.32661 7.77578 3.70432C7.21048 4.08204 6.76989 4.6189 6.50971 5.24703C6.24954 5.87515 6.18146 6.56631 6.3141 7.23312C6.44674 7.89993 6.77413 8.51244 7.25487 8.99318C7.73561 9.47392 8.34812 9.80131 9.01493 9.93395C9.68174 10.0666 10.3729 9.99851 11.001 9.73834C11.6291 9.47816 12.166 9.03757 12.5437 8.47227C12.9214 7.90698 13.123 7.24237 13.123 6.5625C13.123 5.65082 12.7609 4.77648 12.1162 4.13182C11.4716 3.48716 10.5972 3.125 9.68555 3.125ZM9.68555 8.125C9.37652 8.125 9.07442 8.03336 8.81747 7.86167C8.56052 7.68998 8.36025 7.44595 8.24199 7.16044C8.12372 6.87493 8.09278 6.56077 8.15307 6.25767C8.21336 5.95458 8.36217 5.67617 8.5807 5.45765C8.79921 5.23913 9.07763 5.09031 9.38072 5.03002C9.68382 4.96973 9.99798 5.00068 10.2835 5.11894C10.569 5.2372 10.813 5.43747 10.9847 5.69442C11.1564 5.95137 11.248 6.25347 11.248 6.5625C11.246 6.97627 11.0807 7.3725 10.7881 7.66509C10.4956 7.95767 10.0993 8.12295 9.68555 8.125Z" fill="#1C1F1E"/>
</svg>
