<svg width="21" height="21" viewBox="0 0 21 21" fill="none" xmlns="http://www.w3.org/2000/svg">
<path d="M20.7334 0.25483C20.6153 0.137294 20.4662 0.0559167 20.3034 0.0202658C20.1406 -0.0153851 19.9711 -0.00382733 19.8147 0.0535802L0.564683 7.05358C0.398668 7.11655 0.255738 7.22854 0.154878 7.37466C0.0540177 7.52079 0 7.69415 0 7.8717C0 8.04926 0.0540177 8.22262 0.154878 8.36874C0.255738 8.51487 0.398668 8.62686 0.564683 8.68983L7.4679 11.4463C7.83974 11.5948 8.26429 11.5071 8.54696 11.2236L13.012 6.74441C13.3523 6.40308 13.905 6.40264 14.2458 6.74344C14.5862 7.08386 14.5862 7.6358 14.2458 7.97622L9.7549 12.4671C9.47194 12.7501 9.38491 13.1745 9.53368 13.546L12.2984 20.4498C12.3633 20.6126 12.4755 20.7522 12.6206 20.8505C12.7657 20.9488 12.9369 21.0012 13.1122 21.0011C13.289 20.9975 13.4606 20.9403 13.6043 20.8372C13.748 20.7341 13.8571 20.5899 13.9172 20.4236L20.9172 1.17358C20.9768 1.01877 20.9912 0.850207 20.9586 0.687538C20.9261 0.52487 20.848 0.374802 20.7334 0.25483Z" fill="white"/>
</svg>
