<svg width="18" height="21" viewBox="0 0 18 21" fill="none" xmlns="http://www.w3.org/2000/svg">
<path d="M1.28418 12.6707L8.76758 5.03009C9.37402 4.38363 9.97954 3.98641 10.6104 3.88947L10.7676 3.86993C11.1336 3.83504 11.5036 3.87812 11.8525 3.99786C12.2514 4.13476 12.6109 4.36706 12.8994 4.67462H12.8984C13.3823 5.18666 13.6246 5.81027 13.6221 6.51154L13.6055 6.8172C13.5482 7.38492 13.316 7.90578 12.8945 8.40021L12.8896 8.40509L6.00977 15.4529C5.93746 15.5274 5.85128 15.587 5.75586 15.6277C5.66027 15.6685 5.55704 15.6896 5.45312 15.6902C5.34935 15.6909 5.24637 15.6711 5.15039 15.6317C5.05434 15.5921 4.96686 15.5334 4.89355 15.4598C4.74484 15.3103 4.66046 15.1081 4.65918 14.8973C4.65797 14.6865 4.7399 14.484 4.88672 14.3328L11.7334 7.32013C11.9194 7.09989 12.0136 6.88292 12.0361 6.65607C12.0735 6.2823 11.9847 6.01694 11.7578 5.77716L11.7568 5.77618C11.6424 5.65373 11.4995 5.56161 11.3408 5.50763C11.182 5.45364 11.0122 5.43922 10.8467 5.46661H10.8457C10.745 5.48194 10.6134 5.53813 10.4521 5.64923C10.292 5.75964 10.1075 5.92106 9.90137 6.14044L9.89941 6.1424L2.45117 13.742L2.45215 13.743C1.92853 14.3818 1.67781 15.0547 1.67773 15.7879C1.67773 16.7123 2.01071 17.3708 2.59082 17.9432C3.04455 18.392 3.66399 18.6647 4.60449 18.7039C5.25627 18.7297 5.86096 18.5154 6.39062 18.0877L14.7832 9.4422C15.4089 8.63607 15.7227 7.68777 15.7227 6.56915C15.7226 5.11491 15.1564 3.93936 14.2852 3.11407C13.3908 2.26688 12.3731 1.76967 11.0361 1.70099C10.0587 1.65057 9.02475 2.03063 7.98535 2.82697L2.03516 8.8504L1.86426 9.02325V8.97931C1.83675 8.99502 1.80863 9.01094 1.7793 9.02325C1.68349 9.06339 1.58044 9.0838 1.47656 9.0838C1.37265 9.08378 1.26966 9.06343 1.17383 9.02325C1.07794 8.983 0.990827 8.92363 0.917969 8.84943C0.770228 8.69912 0.687561 8.4967 0.6875 8.28595C0.6875 8.07518 0.770257 7.87282 0.917969 7.72247V7.7215L6.94922 1.6297L6.95801 1.62091L7.02051 1.70001L6.95898 1.62091C8.33226 0.554669 9.7232 0.0357477 11.1152 0.106262C12.8572 0.195595 14.2156 0.861271 15.3652 1.94904C16.5406 3.06158 17.2998 4.64847 17.2998 6.56818C17.2998 8.04149 16.8713 9.34151 15.9658 10.494L15.959 10.5018L7.45605 19.2615L7.44824 19.2703L7.44727 19.2693C6.57031 19.9882 5.5909 20.3388 4.54004 20.2967C3.21912 20.2418 2.22739 19.8145 1.48828 19.0838C0.629312 18.2361 0.100586 17.1894 0.100586 15.7869C0.100653 14.6695 0.487254 13.6394 1.27832 12.6776L1.2832 12.6707H1.28418Z" fill="#CDCFCE" stroke="#CDCFCE" stroke-width="0.2"/>
</svg>
