<svg width="19" height="10" viewBox="0 0 19 10" fill="none" xmlns="http://www.w3.org/2000/svg">
<path d="M18.4636 5.88698C18.5541 6.0438 18.6018 6.22169 18.6017 6.40277C18.6017 6.58385 18.554 6.76173 18.4634 6.91852C18.3728 7.07531 18.2426 7.20548 18.0857 7.29594C17.9288 7.38641 17.7509 7.43397 17.5698 7.43386C17.3884 7.43576 17.2097 7.38891 17.0525 7.29822C16.8953 7.20752 16.7653 7.07629 16.6761 6.91823L15.2753 4.4948C14.4865 4.98848 13.6373 5.37841 12.7487 5.65495L13.1956 8.18151C13.2203 8.31478 13.2183 8.45163 13.1896 8.5841C13.161 8.71658 13.1063 8.84204 13.0287 8.95318C12.9512 9.06433 12.8523 9.15895 12.7378 9.23155C12.6234 9.30414 12.4956 9.35326 12.362 9.37604L12.1816 9.39323C11.9396 9.39293 11.7054 9.30755 11.52 9.15201C11.3346 8.99648 11.2098 8.7807 11.1675 8.54245L10.7292 6.07605C10.2618 6.13594 9.79101 6.16465 9.31984 6.16198C8.84594 6.16008 8.37253 6.13139 7.90187 6.07605L7.46359 8.54245C7.42124 8.7807 7.29645 8.99648 7.11107 9.15201C6.92569 9.30755 6.69151 9.39293 6.44952 9.39323L6.26906 9.37604C6.13545 9.35326 6.0077 9.30414 5.89325 9.23155C5.77879 9.15895 5.6799 9.06433 5.60234 8.95318C5.52477 8.84204 5.47008 8.71658 5.44143 8.5841C5.41278 8.45163 5.41075 8.31478 5.43546 8.18151L5.88234 5.65495C4.99653 5.37835 4.15019 4.9884 3.36437 4.4948L1.95499 6.93542C1.86377 7.09171 1.73333 7.22148 1.57658 7.31191C1.41984 7.40234 1.2422 7.4503 1.06124 7.45105C0.88012 7.45249 0.70197 7.40498 0.545618 7.31354C0.428193 7.24589 0.325255 7.15575 0.24269 7.04828C0.160125 6.94081 0.0995523 6.81812 0.0644346 6.68723C0.029317 6.55634 0.0203434 6.41981 0.0380268 6.28544C0.0557103 6.15108 0.099704 6.02152 0.167493 5.90417L1.70577 3.24011C1.18523 2.77769 0.705104 2.27168 0.270618 1.72761C0.175689 1.62392 0.102963 1.50191 0.0569084 1.36909C0.0108537 1.23626 -0.00755752 1.09543 0.00280607 0.955227C0.0131697 0.815028 0.0520892 0.678428 0.117173 0.553819C0.182258 0.429211 0.272132 0.319225 0.381276 0.230619C0.490419 0.142014 0.616526 0.0766588 0.75185 0.0385706C0.887174 0.00048227 1.02886 -0.00953522 1.16819 0.00913314C1.30753 0.0278015 1.44158 0.0747617 1.5621 0.147129C1.68263 0.219496 1.78709 0.315741 1.86906 0.429952C3.22687 2.10573 5.61593 4.09948 9.31984 4.09948C13.0237 4.09948 15.4128 2.10573 16.7706 0.429952C16.8526 0.315741 16.957 0.219496 17.0776 0.147129C17.1981 0.0747617 17.3321 0.0278015 17.4715 0.00913314C17.6108 -0.00953522 17.7525 0.00048227 17.8878 0.0385706C18.0231 0.0766588 18.1493 0.142014 18.2584 0.230619C18.3675 0.319225 18.4574 0.429211 18.5225 0.553819C18.5876 0.678428 18.6265 0.815028 18.6369 0.955227C18.6472 1.09543 18.6288 1.23626 18.5828 1.36909C18.5367 1.50191 18.464 1.62392 18.3691 1.72761C17.9326 2.2726 17.4526 2.7813 16.9339 3.2487L18.4636 5.88698Z" fill="#A7A6A5"/>
</svg>
