<svg width="48" height="16" viewBox="0 0 48 16" fill="none" xmlns="http://www.w3.org/2000/svg">
<path d="M18.2253 0.272625L11.9421 15.2657H7.84106L4.75125 3.30159C4.56103 2.56378 4.39847 2.29528 3.82809 1.98197C2.89378 1.47684 1.35694 1.00303 0 0.707906L0.0949688 0.272718H6.693C7.5345 0.272718 8.29106 0.834 8.48128 1.80159L10.1151 10.4793L14.1504 0.272718L18.2253 0.272625ZM34.289 10.3684C34.3072 6.41344 28.8165 6.19819 28.856 4.42884C28.8667 3.88875 29.3785 3.31725 30.4996 3.17297C31.0563 3.09891 32.5882 3.04463 34.3246 3.84178L35.0051 0.663843C34.0709 0.324749 32.8701 0 31.3776 0C27.5442 0 24.8456 2.03897 24.8228 4.95638C24.7977 7.11375 26.7482 8.31769 28.2194 9.03619C29.7301 9.77137 30.2352 10.2408 30.2299 10.9001C30.22 11.9064 29.0245 12.3462 27.9095 12.366C25.959 12.3964 24.8277 11.8389 23.9242 11.4182L23.2221 14.7053C24.127 15.1208 25.8025 15.4816 27.5365 15.5029C31.6108 15.5027 34.2761 13.4855 34.289 10.3684ZM44.412 15.2658H48L44.8692 0.272718H41.5569C40.8127 0.272718 40.1852 0.706782 39.9056 1.37175L34.0892 15.2658H38.1603L38.9684 13.0267H43.9448L44.412 15.2658ZM40.0841 9.95363L42.1266 4.32394L43.3015 9.95363H40.0841ZM23.768 0.272625L20.5589 15.2657H16.6796L19.8894 0.272625H23.768Z" fill="#1A2ADF"/>
</svg>
